<svg xmlns="http://www.w3.org/2000/svg" width="392.25" height="406" viewBox="0 0 392.25 406">
  <path id="Path_52" data-name="Path 52" d="M0,0-.273,0-15.5.277-35.967,0-78,0a27.729,27.729,0,0,0-22.251,11.623l-69.768,93.843-69.768-93.842A27.739,27.739,0,0,0-262.043,0h-41.839l-21.14.277L-339.776,0a26.185,26.185,0,0,0-26.373,26.1,25.416,25.416,0,0,0,4.416,14.282,14.4,14.4,0,0,0,1.241,1.932l120.3,158.2a5.608,5.608,0,0,1,.6,2.714,4.8,4.8,0,0,1-.677,2.367L-360.492,363.684a15.478,15.478,0,0,0-1.282,1.991,25.431,25.431,0,0,0-4.375,14.223,26.13,26.13,0,0,0,26.1,26.1l15.5-.276,20.469.274,42.038,0A27.729,27.729,0,0,0-239.8,394.383l69.773-93.849,69.764,93.842A27.734,27.734,0,0,0-78,406h41.837l21.14-.275L-.273,406A26.187,26.187,0,0,0,26.1,379.9a25.423,25.423,0,0,0-4.415-14.282,14.821,14.821,0,0,0-1.243-1.932L-99.86,205.491a5.633,5.633,0,0,1-.6-2.717,4.77,4.77,0,0,1,.677-2.365L20.443,42.316a15.109,15.109,0,0,0,1.284-1.99A25.419,25.419,0,0,0,26.1,26.1,26.132,26.132,0,0,0,0,0" transform="translate(366.149)" fill="#39c8ed"/>
</svg>
