<svg xmlns="http://www.w3.org/2000/svg" xmlns:xlink="http://www.w3.org/1999/xlink" width="249.989" height="60.733" viewBox="0 0 249.989 60.733">
  <defs>
    <clipPath id="clip-path">
      <path id="Path_10" data-name="Path 10" d="M0,0H249.989V-60.733H0Z" fill="none"/>
    </clipPath>
  </defs>
  <g id="Group_17" data-name="Group 17" transform="translate(0 60.733)">
    <g id="Group_16" data-name="Group 16" clip-path="url(#clip-path)">
      <g id="Group_10" data-name="Group 10" transform="translate(20.68 -60.734)">
        <path id="Path_4" data-name="Path 4" d="M0,0H-18.551A2.089,2.089,0,0,0-20.68,2.039v55.38a2.036,2.036,0,0,0,2.129,2.038H-8.26a2.014,2.014,0,0,0,2.043-2.038v-16.9h3.663c14.474,0,22.478-8.579,22.478-20.046C19.924,9.173,12.176,0,0,0M-.219,26.756h-6v-13H-.049a6.3,6.3,0,0,1,6.556,6.456c.019,3.992-2.895,6.54-6.726,6.54" fill="#3e2fa1"/>
      </g>
      <g id="Group_11" data-name="Group 11" transform="translate(130.388 -44.593)">
        <path id="Path_5" data-name="Path 5" d="M0,0H-10.643A1.978,1.978,0,0,0-12.6,1.953V4.5C-14.39,1.869-18.392,0-23.415,0-34.143,0-44.531,8.324-44.531,22.169s10.3,22.424,21.031,22.424c5.023,0,9.11-1.869,10.9-4.5v1.274a1.925,1.925,0,0,0,1.959,1.954H0a1.925,1.925,0,0,0,1.958-1.954V1.953A1.924,1.924,0,0,0,0,0M-21.2,31a8.566,8.566,0,0,1-8.515-8.664A8.566,8.566,0,0,1-21.2,13.675a8.566,8.566,0,0,1,8.514,8.664A8.566,8.566,0,0,1-21.2,31" fill="#3e2fa1"/>
      </g>
      <g id="Group_12" data-name="Group 12" transform="translate(163.927 -44.508)">
        <path id="Path_6" data-name="Path 6" d="M0,0H-2.412c-3.447,0-8.1,1.375-10.684,4.985V1.8A2,2,0,0,0-15.164,0H-25.417A1.947,1.947,0,0,0-27.4,1.977V41.342a1.947,1.947,0,0,0,1.981,1.977h10.856a2,2,0,0,0,2.068-1.805V22.175c0-4.9,2.24-6.36,7.927-6.36H-.345A2.472,2.472,0,0,0,2.326,13.15V2.579C2.326.344.948,0,0,0" fill="#3e2fa1"/>
      </g>
      <g id="Group_13" data-name="Group 13" transform="translate(73.459 -2.385)">
        <path id="Path_7" data-name="Path 7" d="M0,0C5.261-2.71,8.45-6.952,9.087-12.343c0-1.216-.358-2.147-1.977-2.147l-8.933-.056A3.434,3.434,0,0,0-4.971-13.1l-.521.617A7.485,7.485,0,0,1-11.61-9.861a7,7,0,0,1-7-7.017c0-.022-.009-.041-.011-.063s0-.027,0-.04H7.592a2.31,2.31,0,0,0,2.314-2.464v-1.784a20.776,20.776,0,0,0-21.25-20.979c-13.109,0-22.448,10.022-22.448,22.593a24.741,24.741,0,0,0,.158,2.673C-32.452-5.994-24.017,2.385-11.087,2.385A27.649,27.649,0,0,0,.737-.35m-19.358-23.4a7.713,7.713,0,0,1,.39-2.224c.015-.039.023-.083.038-.121a7.091,7.091,0,0,1,6.685-4.768,7.1,7.1,0,0,1,6.992,5.91c.007.025.121,1.048.121,1.2Z" fill="#3e2fa1"/>
      </g>
      <g id="Group_14" data-name="Group 14" transform="translate(190.286 -1.276)">
        <path id="Path_8" data-name="Path 8" d="M0,0A1.731,1.731,0,0,1-1.732-1.732a1.7,1.7,0,0,1,.417-1.091L6.857-13.607a2.457,2.457,0,0,0-.762-.123l-8.809-.129a3.316,3.316,0,0,1-3.04-3.3V-57.439a1.992,1.992,0,0,0-1.971-2.018h-10.8a2.065,2.065,0,0,0-2.056,2.018V-13.96c0,7.4,2.4,13.96,11.909,13.96Z" fill="#3e2fa1"/>
      </g>
      <g id="Group_15" data-name="Group 15" transform="translate(249.583 -4.123)">
        <path id="Path_9" data-name="Path 9" d="M0,0-19.04-25.036a3.174,3.174,0,0,1-.584-1.846,3.174,3.174,0,0,1,.584-1.846L0-53.764l-.011-.023a1.7,1.7,0,0,0,.417-1.091,1.733,1.733,0,0,0-1.732-1.733l-2.41.044-3.314-.044h-6.622a2.011,2.011,0,0,0-1.6.873L-28.235-38.3-41.2-55.738a2.013,2.013,0,0,0-1.6-.873h-6.621l-3.314.044-2.41-.044a1.732,1.732,0,0,0-1.732,1.733,1.7,1.7,0,0,0,.417,1.091l-.011.023L-37.43-28.728a3.174,3.174,0,0,1,.584,1.846,3.174,3.174,0,0,1-.584,1.846L-56.469,0l.011.023a1.7,1.7,0,0,0-.417,1.091,1.732,1.732,0,0,0,1.732,1.733l2.41-.044,3.314.044H-42.8a2.014,2.014,0,0,0,1.6-.872l12.966-17.441L-15.268,1.975a2.013,2.013,0,0,0,1.6.872H-7.05L-3.736,2.8l2.41.044A1.733,1.733,0,0,0,.406,1.114,1.7,1.7,0,0,0-.011.023Z" fill="#3e2fa1"/>
      </g>
    </g>
  </g>
</svg>
